<mxfile host="app.diagrams.net" modified="2023-05-08T19:17:35.201Z" agent="Mozilla/5.0 (Windows NT 10.0; Win64; x64) AppleWebKit/537.36 (KHTML, like Gecko) Chrome/112.0.0.0 Safari/537.36" etag="bQsYLZ7TlrmTyVwGJ7QB" version="21.2.9" type="device">
  <diagram name="Σελίδα-1" id="CsE6YNoTUhBlBd0UO_HM">
    <mxGraphModel dx="1050" dy="541" grid="1" gridSize="10" guides="1" tooltips="1" connect="1" arrows="1" fold="1" page="1" pageScale="1" pageWidth="1169" pageHeight="827" math="0" shadow="0">
      <root>
        <mxCell id="0" />
        <mxCell id="1" parent="0" />
        <mxCell id="NPoixGDkpMfQCLvvEqdP-10" value="" style="edgeStyle=none;curved=1;rounded=0;orthogonalLoop=1;jettySize=auto;html=1;fontSize=12;startSize=8;endSize=8;strokeColor=#FF0000;" parent="1" source="NPoixGDkpMfQCLvvEqdP-7" target="NPoixGDkpMfQCLvvEqdP-9" edge="1">
          <mxGeometry relative="1" as="geometry" />
        </mxCell>
        <mxCell id="NPoixGDkpMfQCLvvEqdP-25" value="&lt;font color=&quot;#ff0000&quot; style=&quot;font-size: 12px;&quot;&gt;Αξιολόγηση διατροφολόγου&lt;/font&gt;" style="edgeLabel;html=1;align=center;verticalAlign=middle;resizable=0;points=[];fontSize=16;" parent="NPoixGDkpMfQCLvvEqdP-10" vertex="1" connectable="0">
          <mxGeometry x="-0.2931" relative="1" as="geometry">
            <mxPoint x="75" as="offset" />
          </mxGeometry>
        </mxCell>
        <mxCell id="NPoixGDkpMfQCLvvEqdP-23" value="" style="edgeStyle=none;curved=1;rounded=0;orthogonalLoop=1;jettySize=auto;html=1;fontSize=12;startSize=8;endSize=8;strokeColor=#FF0000;" parent="1" source="NPoixGDkpMfQCLvvEqdP-7" target="NPoixGDkpMfQCLvvEqdP-15" edge="1">
          <mxGeometry relative="1" as="geometry" />
        </mxCell>
        <mxCell id="NPoixGDkpMfQCLvvEqdP-24" value="&lt;font color=&quot;#ff0000&quot; style=&quot;font-size: 12px;&quot;&gt;Επιλογή διατροφολόγου&lt;/font&gt;" style="edgeLabel;html=1;align=center;verticalAlign=middle;resizable=0;points=[];fontSize=16;" parent="NPoixGDkpMfQCLvvEqdP-23" vertex="1" connectable="0">
          <mxGeometry x="-0.1751" y="-3" relative="1" as="geometry">
            <mxPoint x="9" y="-3" as="offset" />
          </mxGeometry>
        </mxCell>
        <mxCell id="NPoixGDkpMfQCLvvEqdP-34" value="" style="edgeStyle=none;curved=1;rounded=0;orthogonalLoop=1;jettySize=auto;html=1;fontSize=12;startSize=8;endSize=8;strokeColor=#FF0000;" parent="1" source="NPoixGDkpMfQCLvvEqdP-7" edge="1">
          <mxGeometry relative="1" as="geometry">
            <Array as="points">
              <mxPoint x="332.5" y="450" />
            </Array>
            <mxPoint x="435" y="530" as="targetPoint" />
          </mxGeometry>
        </mxCell>
        <mxCell id="NPoixGDkpMfQCLvvEqdP-35" value="&lt;font style=&quot;font-size: 12px;&quot;&gt;Συμπληρώνει τα πεδία της φόρμας&lt;/font&gt;" style="edgeLabel;html=1;align=center;verticalAlign=middle;resizable=0;points=[];fontSize=16;fontColor=#FF0000;" parent="NPoixGDkpMfQCLvvEqdP-34" vertex="1" connectable="0">
          <mxGeometry x="0.1499" relative="1" as="geometry">
            <mxPoint x="41" y="4" as="offset" />
          </mxGeometry>
        </mxCell>
        <mxCell id="NPoixGDkpMfQCLvvEqdP-7" value="Χρήστης" style="shape=umlActor;verticalLabelPosition=bottom;verticalAlign=top;html=1;outlineConnect=0;fontSize=16;" parent="1" vertex="1">
          <mxGeometry x="302.5" y="410" width="30" height="60" as="geometry" />
        </mxCell>
        <mxCell id="NPoixGDkpMfQCLvvEqdP-13" value="" style="edgeStyle=none;curved=1;rounded=0;orthogonalLoop=1;jettySize=auto;html=1;fontSize=12;startSize=8;endSize=8;strokeColor=#FF0000;" parent="1" source="NPoixGDkpMfQCLvvEqdP-9" target="NPoixGDkpMfQCLvvEqdP-11" edge="1">
          <mxGeometry relative="1" as="geometry" />
        </mxCell>
        <mxCell id="NPoixGDkpMfQCLvvEqdP-9" value="&lt;font color=&quot;#ff0000&quot; style=&quot;font-size: 14px;&quot;&gt;Σελίδα αξιολόγηση διατροφολόγου&lt;/font&gt;" style="shape=umlBoundary;whiteSpace=wrap;html=1;fontSize=16;strokeColor=#FF0000;" parent="1" vertex="1">
          <mxGeometry x="252.5" y="210" width="130" height="100" as="geometry" />
        </mxCell>
        <mxCell id="NPoixGDkpMfQCLvvEqdP-14" value="" style="edgeStyle=none;curved=1;rounded=0;orthogonalLoop=1;jettySize=auto;html=1;fontSize=12;startSize=8;endSize=8;strokeColor=#FF0000;" parent="1" source="NPoixGDkpMfQCLvvEqdP-11" target="NPoixGDkpMfQCLvvEqdP-12" edge="1">
          <mxGeometry relative="1" as="geometry" />
        </mxCell>
        <mxCell id="NPoixGDkpMfQCLvvEqdP-16" value="" style="edgeStyle=none;curved=1;rounded=0;orthogonalLoop=1;jettySize=auto;html=1;fontSize=12;startSize=8;endSize=8;entryX=0.587;entryY=0.012;entryDx=0;entryDy=0;entryPerimeter=0;strokeColor=#FF0000;" parent="1" source="NPoixGDkpMfQCLvvEqdP-11" target="NPoixGDkpMfQCLvvEqdP-15" edge="1">
          <mxGeometry relative="1" as="geometry" />
        </mxCell>
        <mxCell id="NPoixGDkpMfQCLvvEqdP-11" value="&lt;font color=&quot;#ff0000&quot;&gt;Εμφάνισε&lt;/font&gt;" style="ellipse;shape=umlControl;whiteSpace=wrap;html=1;fontSize=16;strokeColor=#FF0000;" parent="1" vertex="1">
          <mxGeometry x="542.5" y="220" width="70" height="80" as="geometry" />
        </mxCell>
        <mxCell id="NPoixGDkpMfQCLvvEqdP-12" value="&lt;font color=&quot;#ff0000&quot; style=&quot;font-size: 14px;&quot;&gt;Λίστα διατροφολόγων&lt;/font&gt;" style="ellipse;shape=umlEntity;whiteSpace=wrap;html=1;fontSize=16;strokeColor=#FF0000;" parent="1" vertex="1">
          <mxGeometry x="527.5" y="100" width="100" height="90" as="geometry" />
        </mxCell>
        <mxCell id="NPoixGDkpMfQCLvvEqdP-26" value="" style="edgeStyle=none;curved=1;rounded=0;orthogonalLoop=1;jettySize=auto;html=1;fontSize=12;startSize=8;endSize=8;strokeColor=#FF0000;" parent="1" source="NPoixGDkpMfQCLvvEqdP-15" target="NPoixGDkpMfQCLvvEqdP-19" edge="1">
          <mxGeometry relative="1" as="geometry" />
        </mxCell>
        <mxCell id="NPoixGDkpMfQCLvvEqdP-15" value="&lt;font color=&quot;#ff0000&quot; style=&quot;font-size: 14px;&quot;&gt;Σελίδα επιλογής διατροφολόγου&lt;/font&gt;" style="shape=umlBoundary;whiteSpace=wrap;html=1;fontSize=16;strokeColor=#FF0000;" parent="1" vertex="1">
          <mxGeometry x="502.5" y="390" width="130" height="110" as="geometry" />
        </mxCell>
        <mxCell id="NPoixGDkpMfQCLvvEqdP-22" value="" style="edgeStyle=none;curved=1;rounded=0;orthogonalLoop=1;jettySize=auto;html=1;fontSize=12;startSize=8;endSize=8;strokeColor=#FF0000;" parent="1" source="NPoixGDkpMfQCLvvEqdP-19" target="NPoixGDkpMfQCLvvEqdP-21" edge="1">
          <mxGeometry relative="1" as="geometry" />
        </mxCell>
        <mxCell id="NPoixGDkpMfQCLvvEqdP-28" value="" style="edgeStyle=none;curved=1;rounded=0;orthogonalLoop=1;jettySize=auto;html=1;fontSize=12;startSize=8;endSize=8;strokeColor=#FF0000;" parent="1" source="NPoixGDkpMfQCLvvEqdP-19" target="NPoixGDkpMfQCLvvEqdP-27" edge="1">
          <mxGeometry relative="1" as="geometry">
            <mxPoint x="632.5" y="520" as="targetPoint" />
          </mxGeometry>
        </mxCell>
        <mxCell id="NPoixGDkpMfQCLvvEqdP-32" value="&lt;font color=&quot;#ff0000&quot;&gt;Ναι&lt;/font&gt;" style="edgeLabel;html=1;align=center;verticalAlign=middle;resizable=0;points=[];fontSize=16;" parent="NPoixGDkpMfQCLvvEqdP-28" vertex="1" connectable="0">
          <mxGeometry x="0.3" y="3" relative="1" as="geometry">
            <mxPoint x="-22" as="offset" />
          </mxGeometry>
        </mxCell>
        <mxCell id="NPoixGDkpMfQCLvvEqdP-75" value="" style="edgeStyle=none;curved=1;rounded=0;orthogonalLoop=1;jettySize=auto;html=1;fontSize=12;startSize=8;endSize=8;exitX=0.512;exitY=0.132;exitDx=0;exitDy=0;exitPerimeter=0;" parent="1" source="NPoixGDkpMfQCLvvEqdP-19" target="NPoixGDkpMfQCLvvEqdP-60" edge="1">
          <mxGeometry relative="1" as="geometry" />
        </mxCell>
        <mxCell id="NPoixGDkpMfQCLvvEqdP-76" value="Όχι" style="edgeLabel;html=1;align=center;verticalAlign=middle;resizable=0;points=[];fontSize=16;" parent="NPoixGDkpMfQCLvvEqdP-75" vertex="1" connectable="0">
          <mxGeometry x="-0.3718" relative="1" as="geometry">
            <mxPoint x="-18" as="offset" />
          </mxGeometry>
        </mxCell>
        <mxCell id="NPoixGDkpMfQCLvvEqdP-19" value="&lt;font color=&quot;#ff0000&quot;&gt;Έχει γίνει ραντεβού;&lt;/font&gt;" style="ellipse;shape=umlControl;whiteSpace=wrap;html=1;fontSize=16;strokeColor=#FF0000;" parent="1" vertex="1">
          <mxGeometry x="662.5" y="400" width="82.5" height="90" as="geometry" />
        </mxCell>
        <mxCell id="NPoixGDkpMfQCLvvEqdP-21" value="&lt;font color=&quot;#ff0000&quot;&gt;Λίστα τα ραντεβού μου&lt;/font&gt;" style="ellipse;shape=umlEntity;whiteSpace=wrap;html=1;fontSize=16;strokeColor=#FF0000;" parent="1" vertex="1">
          <mxGeometry x="792.5" y="405" width="80" height="80" as="geometry" />
        </mxCell>
        <mxCell id="NPoixGDkpMfQCLvvEqdP-36" value="" style="edgeStyle=none;curved=1;rounded=0;orthogonalLoop=1;jettySize=auto;html=1;fontSize=12;startSize=8;endSize=8;strokeColor=#FF0000;" parent="1" source="NPoixGDkpMfQCLvvEqdP-27" target="NPoixGDkpMfQCLvvEqdP-33" edge="1">
          <mxGeometry relative="1" as="geometry" />
        </mxCell>
        <mxCell id="NPoixGDkpMfQCLvvEqdP-27" value="&lt;font color=&quot;#ff0000&quot;&gt;Εμφάνισε&lt;/font&gt;" style="ellipse;shape=umlControl;whiteSpace=wrap;html=1;fontSize=16;strokeColor=#FF0000;" parent="1" vertex="1">
          <mxGeometry x="669.37" y="535" width="70" height="80" as="geometry" />
        </mxCell>
        <mxCell id="NPoixGDkpMfQCLvvEqdP-80" value="" style="edgeStyle=none;curved=1;rounded=0;orthogonalLoop=1;jettySize=auto;html=1;fontSize=12;startSize=8;endSize=8;strokeColor=#FF0000;" parent="1" source="NPoixGDkpMfQCLvvEqdP-33" target="NPoixGDkpMfQCLvvEqdP-37" edge="1">
          <mxGeometry relative="1" as="geometry" />
        </mxCell>
        <mxCell id="NPoixGDkpMfQCLvvEqdP-33" value="&lt;font color=&quot;#ff0000&quot;&gt;Σελίδα συμπλήρωσης φόρμας&lt;/font&gt;" style="shape=umlBoundary;whiteSpace=wrap;html=1;fontSize=16;strokeColor=#FF0000;" parent="1" vertex="1">
          <mxGeometry x="432.5" y="530" width="120" height="90" as="geometry" />
        </mxCell>
        <mxCell id="NPoixGDkpMfQCLvvEqdP-82" value="" style="edgeStyle=none;curved=1;rounded=0;orthogonalLoop=1;jettySize=auto;html=1;fontSize=12;startSize=8;endSize=8;exitX=0.031;exitY=0.503;exitDx=0;exitDy=0;exitPerimeter=0;strokeColor=#FF0000;" parent="1" source="NPoixGDkpMfQCLvvEqdP-37" target="NPoixGDkpMfQCLvvEqdP-40" edge="1">
          <mxGeometry relative="1" as="geometry" />
        </mxCell>
        <mxCell id="NPoixGDkpMfQCLvvEqdP-83" value="&lt;font color=&quot;#ff0000&quot;&gt;Ναι&lt;/font&gt;" style="edgeLabel;html=1;align=center;verticalAlign=middle;resizable=0;points=[];fontSize=16;" parent="NPoixGDkpMfQCLvvEqdP-82" vertex="1" connectable="0">
          <mxGeometry x="-0.5233" y="2" relative="1" as="geometry">
            <mxPoint x="-26" y="-22" as="offset" />
          </mxGeometry>
        </mxCell>
        <mxCell id="NPoixGDkpMfQCLvvEqdP-91" value="" style="edgeStyle=none;curved=1;rounded=0;orthogonalLoop=1;jettySize=auto;html=1;fontSize=12;startSize=8;endSize=8;" parent="1" source="NPoixGDkpMfQCLvvEqdP-37" target="NPoixGDkpMfQCLvvEqdP-88" edge="1">
          <mxGeometry relative="1" as="geometry" />
        </mxCell>
        <mxCell id="NPoixGDkpMfQCLvvEqdP-95" value="Όχι&amp;nbsp;" style="edgeLabel;html=1;align=center;verticalAlign=middle;resizable=0;points=[];fontSize=16;" parent="NPoixGDkpMfQCLvvEqdP-91" vertex="1" connectable="0">
          <mxGeometry x="-0.2918" y="-2" relative="1" as="geometry">
            <mxPoint x="2" y="-22" as="offset" />
          </mxGeometry>
        </mxCell>
        <mxCell id="NPoixGDkpMfQCLvvEqdP-37" value="&lt;font color=&quot;#ff0000&quot;&gt;Πεδία σωστά;&lt;/font&gt;" style="ellipse;shape=umlControl;whiteSpace=wrap;html=1;fontSize=16;strokeColor=#FF0000;" parent="1" vertex="1">
          <mxGeometry x="456.5" y="650" width="79" height="95" as="geometry" />
        </mxCell>
        <mxCell id="NPoixGDkpMfQCLvvEqdP-51" value="" style="edgeStyle=none;curved=1;rounded=0;orthogonalLoop=1;jettySize=auto;html=1;fontSize=12;startSize=8;endSize=8;strokeColor=#FF0000;" parent="1" source="NPoixGDkpMfQCLvvEqdP-39" target="NPoixGDkpMfQCLvvEqdP-44" edge="1">
          <mxGeometry relative="1" as="geometry" />
        </mxCell>
        <mxCell id="NPoixGDkpMfQCLvvEqdP-39" value="&lt;font color=&quot;#ff0000&quot;&gt;Μήνυμα επιτυχούς υποβολής&lt;/font&gt;" style="shape=umlBoundary;whiteSpace=wrap;html=1;fontSize=16;strokeColor=#FF0000;" parent="1" vertex="1">
          <mxGeometry x="5" y="657.5" width="100" height="80" as="geometry" />
        </mxCell>
        <mxCell id="NPoixGDkpMfQCLvvEqdP-50" value="" style="edgeStyle=none;curved=1;rounded=0;orthogonalLoop=1;jettySize=auto;html=1;fontSize=12;startSize=8;endSize=8;strokeColor=#FF0000;" parent="1" source="NPoixGDkpMfQCLvvEqdP-40" target="NPoixGDkpMfQCLvvEqdP-39" edge="1">
          <mxGeometry relative="1" as="geometry">
            <Array as="points">
              <mxPoint x="162.5" y="698" />
            </Array>
          </mxGeometry>
        </mxCell>
        <mxCell id="NPoixGDkpMfQCLvvEqdP-40" value="&lt;font color=&quot;#ff0000&quot;&gt;Εμφάνισε&lt;/font&gt;" style="ellipse;shape=umlControl;whiteSpace=wrap;html=1;fontSize=16;strokeColor=#FF0000;" parent="1" vertex="1">
          <mxGeometry x="232.5" y="657.5" width="70" height="80" as="geometry" />
        </mxCell>
        <mxCell id="NPoixGDkpMfQCLvvEqdP-47" value="" style="edgeStyle=none;curved=1;rounded=0;orthogonalLoop=1;jettySize=auto;html=1;fontSize=12;startSize=8;endSize=8;strokeColor=#FF0000;" parent="1" source="NPoixGDkpMfQCLvvEqdP-44" target="NPoixGDkpMfQCLvvEqdP-46" edge="1">
          <mxGeometry relative="1" as="geometry" />
        </mxCell>
        <mxCell id="NPoixGDkpMfQCLvvEqdP-86" value="" style="edgeStyle=none;curved=1;rounded=0;orthogonalLoop=1;jettySize=auto;html=1;fontSize=12;startSize=8;endSize=8;strokeColor=#FF0000;" parent="1" source="NPoixGDkpMfQCLvvEqdP-44" target="NPoixGDkpMfQCLvvEqdP-85" edge="1">
          <mxGeometry relative="1" as="geometry" />
        </mxCell>
        <mxCell id="NPoixGDkpMfQCLvvEqdP-44" value="&lt;font color=&quot;#ff0000&quot; style=&quot;font-size: 14px;&quot;&gt;Ανανέωση&amp;nbsp;&lt;br&gt;λίστας διατροφολόγων&lt;/font&gt;" style="ellipse;shape=umlControl;whiteSpace=wrap;html=1;fontSize=16;strokeColor=#FF0000;" parent="1" vertex="1">
          <mxGeometry y="202.5" width="110" height="115" as="geometry" />
        </mxCell>
        <mxCell id="mWqRKD8Z1oJEqnyW0jgy-3" value="" style="edgeStyle=orthogonalEdgeStyle;rounded=0;orthogonalLoop=1;jettySize=auto;html=1;strokeColor=#FF0000;endArrow=none;endFill=0;" edge="1" parent="1" source="NPoixGDkpMfQCLvvEqdP-46" target="NPoixGDkpMfQCLvvEqdP-85">
          <mxGeometry relative="1" as="geometry" />
        </mxCell>
        <mxCell id="NPoixGDkpMfQCLvvEqdP-46" value="&lt;font color=&quot;#ff0000&quot; style=&quot;font-size: 14px;&quot;&gt;Λίστα διατροφολόγων&lt;/font&gt;" style="ellipse;shape=umlEntity;whiteSpace=wrap;html=1;fontSize=16;strokeColor=#FF0000;" parent="1" vertex="1">
          <mxGeometry x="151.25" y="60" width="72.5" height="80" as="geometry" />
        </mxCell>
        <mxCell id="NPoixGDkpMfQCLvvEqdP-72" value="" style="edgeStyle=none;curved=1;rounded=0;orthogonalLoop=1;jettySize=auto;html=1;fontSize=12;startSize=8;endSize=8;" parent="1" source="NPoixGDkpMfQCLvvEqdP-59" target="NPoixGDkpMfQCLvvEqdP-71" edge="1">
          <mxGeometry relative="1" as="geometry" />
        </mxCell>
        <mxCell id="NPoixGDkpMfQCLvvEqdP-59" value="Μήνυμα σφάλματος" style="shape=umlBoundary;whiteSpace=wrap;html=1;fontSize=16;" parent="1" vertex="1">
          <mxGeometry x="653.75" width="100" height="80" as="geometry" />
        </mxCell>
        <mxCell id="NPoixGDkpMfQCLvvEqdP-63" value="" style="edgeStyle=none;curved=1;rounded=0;orthogonalLoop=1;jettySize=auto;html=1;fontSize=12;startSize=8;endSize=8;" parent="1" source="NPoixGDkpMfQCLvvEqdP-60" target="NPoixGDkpMfQCLvvEqdP-59" edge="1">
          <mxGeometry relative="1" as="geometry" />
        </mxCell>
        <mxCell id="NPoixGDkpMfQCLvvEqdP-60" value="Εμφάνισε" style="ellipse;shape=umlControl;whiteSpace=wrap;html=1;fontSize=16;" parent="1" vertex="1">
          <mxGeometry x="662.5" y="210" width="83.75" height="90" as="geometry" />
        </mxCell>
        <mxCell id="NPoixGDkpMfQCLvvEqdP-73" value="" style="edgeStyle=none;curved=1;rounded=0;orthogonalLoop=1;jettySize=auto;html=1;fontSize=12;startSize=8;endSize=8;" parent="1" source="NPoixGDkpMfQCLvvEqdP-71" target="NPoixGDkpMfQCLvvEqdP-9" edge="1">
          <mxGeometry relative="1" as="geometry" />
        </mxCell>
        <mxCell id="NPoixGDkpMfQCLvvEqdP-71" value="&lt;font style=&quot;font-size: 14px;&quot;&gt;Εμφάνισε&lt;/font&gt;" style="ellipse;shape=umlControl;whiteSpace=wrap;html=1;fontSize=16;" parent="1" vertex="1">
          <mxGeometry x="285" width="65" height="80" as="geometry" />
        </mxCell>
        <mxCell id="NPoixGDkpMfQCLvvEqdP-87" value="" style="edgeStyle=none;curved=1;rounded=0;orthogonalLoop=1;jettySize=auto;html=1;fontSize=12;startSize=8;endSize=8;strokeColor=#FF0000;" parent="1" source="NPoixGDkpMfQCLvvEqdP-85" target="NPoixGDkpMfQCLvvEqdP-9" edge="1">
          <mxGeometry relative="1" as="geometry" />
        </mxCell>
        <mxCell id="NPoixGDkpMfQCLvvEqdP-85" value="&lt;font color=&quot;#ff0000&quot;&gt;Εμφάνισε&lt;/font&gt;" style="ellipse;shape=umlControl;whiteSpace=wrap;html=1;fontSize=16;strokeColor=#FF0000;" parent="1" vertex="1">
          <mxGeometry x="152.5" y="220" width="70" height="80" as="geometry" />
        </mxCell>
        <mxCell id="NPoixGDkpMfQCLvvEqdP-96" value="" style="edgeStyle=none;curved=1;rounded=0;orthogonalLoop=1;jettySize=auto;html=1;fontSize=12;startSize=8;endSize=8;" parent="1" source="NPoixGDkpMfQCLvvEqdP-88" target="NPoixGDkpMfQCLvvEqdP-33" edge="1">
          <mxGeometry relative="1" as="geometry" />
        </mxCell>
        <mxCell id="NPoixGDkpMfQCLvvEqdP-88" value="Εμφάνισε" style="ellipse;shape=umlControl;whiteSpace=wrap;html=1;fontSize=16;" parent="1" vertex="1">
          <mxGeometry x="641.25" y="657.5" width="71.25" height="82.5" as="geometry" />
        </mxCell>
      </root>
    </mxGraphModel>
  </diagram>
</mxfile>
